<?xml version="1.0" encoding="UTF-8"?>
<svg width="752pt" height="752pt" version="1.1" viewBox="0 0 752 752" xmlns="http://www.w3.org/2000/svg">
 <defs>
  <clipPath id="a">
   <path d="m139.21 139.21h473.58v473.58h-473.58z"/>
  </clipPath>
 </defs>
 <g clip-path="url(#a)">
  <path d="m376 139.21c-62.801 0-123.03 24.949-167.43 69.355s-69.355 104.63-69.355 167.43 24.949 123.03 69.355 167.44 104.63 69.355 167.43 69.355 123.03-24.949 167.44-69.355 69.355-104.64 69.355-167.44-24.949-123.03-69.355-167.43-104.64-69.355-167.44-69.355zm0 36.43c19.324 0 37.855 7.6758 51.52 21.34 13.664 13.664 21.34 32.195 21.34 51.52 0 19.32-7.6758 37.855-21.34 51.52-13.664 13.66-32.195 21.34-51.52 21.34-19.32 0-37.855-7.6797-51.516-21.34-13.664-13.664-21.34-32.199-21.34-51.52 0-19.324 7.6758-37.855 21.34-51.52 13.66-13.664 32.195-21.34 51.516-21.34zm145.72 338.06c-25.039 26.535-56.848 45.727-91.996 55.508-35.145 9.7812-72.297 9.7812-107.44 0-35.148-9.7812-66.957-28.973-91.996-55.508-5.793-6.0977-11.207-12.547-16.211-19.305 6.3242-38.336 26.055-73.18 55.68-98.316s67.215-38.938 106.07-38.938c38.852 0 76.441 13.801 106.07 38.938 29.621 25.137 49.355 59.98 55.68 98.316-4.8906 6.7461-10.18 13.195-15.848 19.305z"/>
 </g>
</svg>
